<svg xmlns="http://www.w3.org/2000/svg" xmlns:xlink="http://www.w3.org/1999/xlink" width="500" zoomAndPan="magnify" viewBox="0 0 375 374.999991" height="500" preserveAspectRatio="xMidYMid meet" version="1.0"><defs><g/><clipPath id="id1"><path d="M 132.851562 104.882812 L 242.351562 104.882812 L 242.351562 215.132812 L 132.851562 215.132812 Z M 132.851562 104.882812 " clip-rule="nonzero"/></clipPath></defs><g clip-path="url(#id1)"><path fill="#3ab1fd" d="M 242.351562 159.589844 C 242.351562 158.582031 242.324219 157.574219 242.265625 156.566406 C 242.210938 155.558594 242.125 154.554688 242.015625 153.550781 C 241.902344 152.546875 241.761719 151.550781 241.59375 150.554688 C 241.429688 149.558594 241.234375 148.570312 241.011719 147.585938 C 240.789062 146.601562 240.539062 145.625 240.261719 144.65625 C 239.988281 143.683594 239.683594 142.722656 239.355469 141.769531 C 239.027344 140.816406 238.667969 139.871094 238.289062 138.9375 C 237.90625 138.003906 237.5 137.082031 237.066406 136.171875 C 236.632812 135.257812 236.175781 134.359375 235.691406 133.472656 C 235.210938 132.589844 234.703125 131.714844 234.171875 130.859375 C 233.640625 130 233.085938 129.15625 232.507812 128.332031 C 231.929688 127.503906 231.332031 126.691406 230.707031 125.898438 C 230.085938 125.105469 229.441406 124.328125 228.777344 123.570312 C 228.109375 122.808594 227.425781 122.070312 226.71875 121.351562 C 226.011719 120.628906 225.285156 119.929688 224.539062 119.246094 C 223.792969 118.566406 223.03125 117.90625 222.25 117.269531 C 221.46875 116.632812 220.667969 116.015625 219.851562 115.421875 C 219.035156 114.828125 218.203125 114.253906 217.355469 113.707031 C 216.507812 113.160156 215.648438 112.632812 214.769531 112.132812 C 213.894531 111.632812 213.003906 111.15625 212.101562 110.707031 C 211.195312 110.253906 210.28125 109.828125 209.355469 109.429688 C 208.429688 109.027344 207.492188 108.652344 206.542969 108.304688 C 205.597656 107.953125 204.640625 107.632812 203.675781 107.335938 C 202.710938 107.039062 201.738281 106.769531 200.757812 106.527344 C 199.777344 106.285156 198.789062 106.070312 197.796875 105.882812 C 196.804688 105.695312 195.808594 105.535156 194.808594 105.402344 C 193.808594 105.269531 192.804688 105.164062 191.796875 105.085938 C 190.789062 105.007812 189.78125 104.960938 188.773438 104.9375 C 187.761719 104.917969 186.753906 104.921875 185.742188 104.957031 C 184.734375 104.992188 183.726562 105.054688 182.722656 105.144531 C 181.714844 105.234375 180.710938 105.351562 179.714844 105.496094 C 178.714844 105.640625 177.71875 105.816406 176.730469 106.015625 C 175.738281 106.214844 174.757812 106.441406 173.78125 106.699219 C 172.800781 106.953125 171.832031 107.234375 170.871094 107.542969 C 169.910156 107.851562 168.957031 108.183594 168.015625 108.546875 C 167.070312 108.90625 166.140625 109.292969 165.21875 109.707031 C 164.296875 110.117188 163.386719 110.554688 162.488281 111.019531 C 161.59375 111.480469 160.707031 111.96875 159.839844 112.480469 C 158.96875 112.992188 158.113281 113.527344 157.269531 114.085938 C 156.429688 114.644531 155.605469 115.226562 154.796875 115.832031 C 153.988281 116.433594 153.199219 117.0625 152.425781 117.710938 C 151.652344 118.355469 150.894531 119.027344 150.160156 119.714844 C 149.421875 120.40625 148.703125 121.117188 148.007812 121.84375 C 147.308594 122.574219 146.632812 123.324219 145.976562 124.089844 C 145.320312 124.855469 144.6875 125.640625 144.074219 126.445312 C 143.460938 127.246094 142.871094 128.0625 142.304688 128.898438 C 141.738281 129.734375 141.195312 130.582031 140.675781 131.449219 C 140.152344 132.3125 139.65625 133.191406 139.1875 134.082031 C 138.714844 134.972656 138.269531 135.878906 137.847656 136.796875 C 137.425781 137.710938 137.03125 138.640625 136.660156 139.578125 C 136.289062 140.515625 135.945312 141.464844 135.628906 142.421875 C 135.3125 143.378906 135.019531 144.347656 134.757812 145.320312 C 134.492188 146.292969 134.257812 147.273438 134.046875 148.261719 C 133.835938 149.246094 133.65625 150.238281 133.5 151.234375 C 133.34375 152.234375 133.21875 153.234375 133.117188 154.238281 C 133.019531 155.242188 132.949219 156.246094 132.90625 157.253906 C 132.859375 158.261719 132.84375 159.269531 132.855469 160.277344 C 132.871094 161.289062 132.910156 162.296875 132.976562 163.300781 C 133.046875 164.308594 133.140625 165.3125 133.265625 166.3125 C 133.390625 167.3125 133.539062 168.3125 133.71875 169.304688 C 133.898438 170.296875 134.105469 171.285156 134.335938 172.265625 C 134.570312 173.246094 134.832031 174.222656 135.121094 175.1875 C 135.40625 176.15625 135.722656 177.113281 136.0625 178.0625 C 136.402344 179.011719 136.769531 179.953125 137.160156 180.882812 C 137.660156 182.054688 138.195312 183.207031 138.769531 184.335938 L 138.039062 209.617188 C 138.027344 209.957031 138.089844 210.28125 138.222656 210.597656 C 138.351562 210.910156 138.542969 211.183594 138.792969 211.414062 C 139.042969 211.648438 139.328125 211.816406 139.652344 211.925781 C 139.972656 212.035156 140.304688 212.074219 140.644531 212.039062 L 165.335938 209.5625 C 165.652344 209.703125 165.96875 209.839844 166.289062 209.976562 C 168.269531 210.8125 170.289062 211.53125 172.355469 212.128906 C 174.421875 212.726562 176.515625 213.199219 178.636719 213.554688 C 180.757812 213.90625 182.890625 214.128906 185.039062 214.230469 C 187.1875 214.332031 189.332031 214.304688 191.476562 214.15625 C 193.621094 214.003906 195.75 213.726562 197.863281 213.324219 C 199.972656 212.921875 202.054688 212.394531 204.105469 211.746094 C 206.15625 211.101562 208.160156 210.335938 210.121094 209.453125 C 212.078125 208.566406 213.980469 207.574219 215.824219 206.464844 C 216.074219 207.101562 216.375 207.710938 216.71875 208.300781 C 217.0625 208.894531 217.449219 209.453125 217.878906 209.988281 C 218.308594 210.519531 218.773438 211.015625 219.277344 211.480469 C 219.777344 211.941406 220.3125 212.367188 220.878906 212.75 C 221.445312 213.132812 222.035156 213.472656 222.652344 213.765625 C 223.269531 214.0625 223.90625 214.3125 224.558594 214.511719 C 225.214844 214.710938 225.878906 214.863281 226.554688 214.964844 C 227.234375 215.066406 227.914062 215.117188 228.597656 215.117188 C 229.5 215.117188 230.394531 215.027344 231.28125 214.851562 C 232.164062 214.675781 233.023438 214.414062 233.859375 214.070312 C 234.691406 213.726562 235.484375 213.300781 236.234375 212.800781 C 236.984375 212.300781 237.679688 211.730469 238.320312 211.09375 C 238.957031 210.457031 239.527344 209.761719 240.027344 209.011719 C 240.53125 208.261719 240.953125 207.472656 241.300781 206.636719 C 241.644531 205.804688 241.90625 204.945312 242.082031 204.0625 C 242.257812 203.175781 242.347656 202.285156 242.347656 201.382812 L 242.347656 160.707031 C 242.347656 160.335938 242.351562 159.960938 242.351562 159.589844 Z M 187.601562 186.863281 C 172.546875 186.863281 160.296875 174.628906 160.296875 159.589844 C 160.296875 144.550781 172.546875 132.316406 187.601562 132.316406 C 202.660156 132.316406 214.90625 144.550781 214.90625 159.589844 C 214.90625 174.628906 202.660156 186.863281 187.601562 186.863281 Z M 187.601562 186.863281 " fill-opacity="1" fill-rule="nonzero"/></g><g fill="#3ab1fd" fill-opacity="1"><g transform="translate(102.058592, 250.250067)"><g><path d="M 21.316406 -23.785156 C 21.316406 -25.457031 20.175781 -26.332031 18.085938 -26.332031 L 4.179688 -26.332031 C 2.089844 -26.332031 0.949219 -25.417969 0.949219 -23.785156 C 0.949219 -22.152344 2.089844 -21.203125 4.21875 -21.203125 C 5.355469 -21.238281 6.460938 -21.238281 7.523438 -21.238281 C 7.523438 -18.578125 7.5625 -15.882812 7.5625 -13.183594 C 7.5625 -9.839844 7.523438 -6.535156 7.484375 -3.230469 C 7.484375 -1.140625 8.625 0 10.714844 0 L 11.398438 0 C 13.488281 0 14.628906 -1.140625 14.589844 -3.230469 C 14.589844 -6.574219 14.589844 -9.839844 14.589844 -13.183594 L 14.589844 -21.238281 C 15.730469 -21.238281 16.832031 -21.238281 18.046875 -21.203125 C 20.175781 -21.203125 21.316406 -22.152344 21.316406 -23.785156 Z M 21.316406 -23.785156 "/></g></g></g><g fill="#3ab1fd" fill-opacity="1"><g transform="translate(124.322041, 250.250067)"><g><path d="M 7.941406 0.378906 C 10.070312 0.378906 12.121094 -0.34375 13.640625 -1.824219 C 13.679688 -1.519531 13.714844 -1.214844 13.832031 -0.910156 C 13.980469 -0.304688 15.007812 0 16.945312 0 L 17.289062 0 C 19.339844 0 20.402344 -1.179688 20.289062 -3.304688 C 20.175781 -5.890625 20.175781 -9.195312 20.175781 -13.753906 C 20.175781 -18.84375 17.363281 -21.351562 11.703125 -21.351562 C 6.15625 -21.351562 3.230469 -19.871094 2.355469 -16.90625 C 1.746094 -14.816406 3.304688 -13.601562 5.433594 -13.601562 L 5.8125 -13.601562 C 7.675781 -13.601562 7.828125 -14.628906 8.929688 -16.300781 C 9.382812 -16.984375 10.21875 -17.25 11.207031 -17.25 C 12.878906 -17.25 13.640625 -16.414062 13.640625 -13.640625 L 13.640625 -12.347656 C 5.089844 -12.578125 1.179688 -10.105469 1.179688 -5.355469 C 1.179688 -1.367188 4.179688 0.378906 7.941406 0.378906 Z M 9.953125 -3.914062 C 8.167969 -3.914062 7.21875 -4.9375 7.21875 -6.382812 C 7.21875 -8.816406 10.257812 -9.234375 13.714844 -9.308594 L 13.714844 -5.890625 C 12.84375 -4.636719 11.664062 -3.914062 9.953125 -3.914062 Z M 9.953125 -3.914062 "/></g></g></g><g fill="#3ab1fd" fill-opacity="1"><g transform="translate(146.433524, 250.250067)"><g><path d="M 5.207031 0 L 5.433594 0 C 7.523438 0 8.664062 -1.140625 8.664062 -3.230469 C 8.625 -6.914062 8.585938 -10.410156 8.625 -14.171875 C 8.664062 -17.515625 8.664062 -20.933594 8.664062 -24.277344 C 8.664062 -26.367188 7.523438 -27.507812 5.433594 -27.507812 L 5.207031 -27.507812 C 3.117188 -27.507812 1.976562 -26.367188 1.976562 -24.277344 C 2.015625 -20.933594 2.089844 -17.515625 2.089844 -14.171875 C 2.089844 -10.410156 2.015625 -6.914062 1.976562 -3.230469 C 1.976562 -1.140625 3.117188 0 5.207031 0 Z M 5.207031 0 "/></g></g></g><g fill="#3ab1fd" fill-opacity="1"><g transform="translate(157.109339, 250.250067)"><g><path d="M 20.59375 -3.570312 C 18.730469 -9.6875 17.441406 -11.246094 14.097656 -11.625 L 14.097656 -11.777344 C 16.070312 -12.578125 18.085938 -14.667969 19.492188 -17.25 C 20.632812 -19.414062 19.300781 -21.011719 16.90625 -21.011719 L 16.148438 -21.011719 C 14.210938 -21.011719 13.222656 -20.023438 12.613281 -18.160156 C 11.855469 -15.804688 10.449219 -13.714844 8.625 -12.691406 L 8.625 -14.171875 C 8.664062 -17.515625 8.664062 -20.933594 8.664062 -24.277344 C 8.664062 -26.367188 7.523438 -27.507812 5.433594 -27.507812 L 5.207031 -27.507812 C 3.117188 -27.507812 1.976562 -26.367188 1.976562 -24.277344 C 2.015625 -20.933594 2.089844 -17.515625 2.089844 -14.171875 C 2.089844 -10.410156 2.015625 -6.914062 1.976562 -3.230469 C 1.976562 -1.140625 3.117188 0 5.207031 0 L 5.433594 0 C 7.523438 0 8.664062 -1.140625 8.664062 -3.230469 C 8.625 -5.054688 8.625 -6.800781 8.625 -8.585938 L 9.195312 -8.585938 C 11.09375 -8.585938 11.929688 -7.410156 13.144531 -2.964844 C 13.679688 -0.949219 14.894531 0 16.792969 0 L 17.859375 0 C 20.175781 0 21.277344 -1.40625 20.59375 -3.570312 Z M 20.59375 -3.570312 "/></g></g></g><g fill="#3ab1fd" fill-opacity="1"><g transform="translate(179.866692, 250.250067)"><g><path d="M 7.941406 0.378906 C 10.070312 0.378906 12.121094 -0.34375 13.640625 -1.824219 C 13.679688 -1.519531 13.714844 -1.214844 13.832031 -0.910156 C 13.980469 -0.304688 15.007812 0 16.945312 0 L 17.289062 0 C 19.339844 0 20.402344 -1.179688 20.289062 -3.304688 C 20.175781 -5.890625 20.175781 -9.195312 20.175781 -13.753906 C 20.175781 -18.84375 17.363281 -21.351562 11.703125 -21.351562 C 6.15625 -21.351562 3.230469 -19.871094 2.355469 -16.90625 C 1.746094 -14.816406 3.304688 -13.601562 5.433594 -13.601562 L 5.8125 -13.601562 C 7.675781 -13.601562 7.828125 -14.628906 8.929688 -16.300781 C 9.382812 -16.984375 10.21875 -17.25 11.207031 -17.25 C 12.878906 -17.25 13.640625 -16.414062 13.640625 -13.640625 L 13.640625 -12.347656 C 5.089844 -12.578125 1.179688 -10.105469 1.179688 -5.355469 C 1.179688 -1.367188 4.179688 0.378906 7.941406 0.378906 Z M 9.953125 -3.914062 C 8.167969 -3.914062 7.21875 -4.9375 7.21875 -6.382812 C 7.21875 -8.816406 10.257812 -9.234375 13.714844 -9.308594 L 13.714844 -5.890625 C 12.84375 -4.636719 11.664062 -3.914062 9.953125 -3.914062 Z M 9.953125 -3.914062 "/></g></g></g><g fill="#3ab1fd" fill-opacity="1"><g transform="translate(201.978175, 250.250067)"><g><path d="M 12.042969 -4.597656 C 10.21875 -4.558594 9.421875 -5.585938 9.421875 -7.789062 C 9.421875 -9.765625 9.382812 -12.007812 9.460938 -14.171875 C 9.460938 -14.855469 9.5 -15.503906 9.5 -16.1875 L 12.460938 -16.222656 C 14.363281 -16.222656 15.386719 -17.058594 15.386719 -18.617188 C 15.386719 -20.175781 14.25 -21.011719 12.160156 -21.011719 L 9.5 -21.011719 L 9.5 -24.355469 C 9.5 -26.367188 8.09375 -27.242188 5.964844 -26.558594 C 4.179688 -25.988281 3.304688 -24.8125 3.304688 -22.910156 C 3.304688 -22.265625 3.34375 -21.65625 3.34375 -21.011719 L 1.746094 -21.011719 C 0.722656 -21.011719 0.113281 -20.136719 0.113281 -18.578125 C 0.113281 -17.023438 1.253906 -16.148438 3.34375 -16.148438 L 3.382812 -16.148438 L 3.382812 -14.171875 C 3.382812 -11.742188 3.382812 -9.269531 3.34375 -7.027344 C 3.230469 -1.519531 6.269531 0.457031 10.980469 0.457031 C 11.855469 0.457031 12.726562 0.378906 13.488281 0.226562 C 15.160156 -0.113281 15.804688 -1.367188 15.652344 -3 C 15.503906 -4.558594 14.25 -4.671875 12.042969 -4.597656 Z M 12.042969 -4.597656 "/></g></g></g><g fill="#3ab1fd" fill-opacity="1"><g transform="translate(218.314832, 250.250067)"><g><path d="M 5.394531 -23.671875 C 8.207031 -23.671875 9.347656 -24.621094 9.347656 -26.902344 C 9.347656 -29.179688 8.207031 -30.128906 5.394531 -30.128906 C 2.582031 -30.128906 1.445312 -29.179688 1.445312 -26.902344 C 1.445312 -24.621094 2.582031 -23.671875 5.394531 -23.671875 Z M 5.507812 0 C 7.597656 0 8.699219 -1.140625 8.664062 -3.230469 C 8.664062 -5.394531 8.625 -7.523438 8.664062 -9.726562 C 8.699219 -12.042969 8.699219 -15.121094 8.699219 -17.78125 C 8.699219 -19.871094 7.5625 -21.011719 5.472656 -21.011719 L 5.433594 -21.011719 C 3.34375 -21.011719 2.203125 -19.871094 2.203125 -17.820312 C 2.242188 -15.425781 2.242188 -12.082031 2.28125 -6.460938 L 2.28125 -3.230469 C 2.28125 -1.140625 3.417969 0 5.507812 0 Z M 5.507812 0 "/></g></g></g><g fill="#3ab1fd" fill-opacity="1"><g transform="translate(229.10463, 250.250067)"><g><path d="M 10.90625 0.378906 C 15.917969 0.378906 18.960938 -2.886719 19.871094 -13.03125 C 20.328125 -18.199219 19.113281 -21.011719 17.171875 -21.011719 C 15.234375 -21.011719 14.210938 -19.757812 14.25 -17.402344 C 14.476562 -6.574219 13.414062 -4.863281 11.359375 -4.863281 C 9.421875 -4.863281 8.664062 -7.523438 8.550781 -17.515625 C 8.550781 -19.796875 7.410156 -21.011719 5.320312 -21.011719 L 4.976562 -21.011719 C 2.886719 -21.011719 1.671875 -19.796875 1.746094 -17.554688 C 2.128906 -3.835938 5.089844 0.378906 10.90625 0.378906 Z M 10.90625 0.378906 "/></g></g></g><g fill="#3ab1fd" fill-opacity="1"><g transform="translate(250.988159, 250.250067)"><g><path d="M 11.171875 0.378906 C 15.84375 0.378906 18.695312 -0.949219 19.605469 -3.761719 C 20.175781 -5.472656 18.769531 -6.535156 16.792969 -6.535156 C 15.160156 -6.535156 15.007812 -5.472656 13.5625 -4.519531 C 13.03125 -4.21875 12.234375 -4.027344 11.207031 -4.027344 C 9.234375 -4.027344 7.789062 -4.976562 7.636719 -8.890625 L 19.757812 -8.890625 C 20.0625 -8.890625 20.289062 -9.117188 20.328125 -9.5 C 21.050781 -16.566406 18.238281 -21.351562 11.171875 -21.351562 C 4.597656 -21.351562 1.367188 -17.820312 1.367188 -10.828125 C 1.367188 -3.34375 4.371094 0.378906 11.171875 0.378906 Z M 7.675781 -12.460938 C 7.597656 -15.539062 8.890625 -17.023438 10.867188 -17.023438 C 13.070312 -17.023438 13.980469 -15.503906 13.90625 -12.460938 Z M 7.675781 -12.460938 "/></g></g></g><g fill="#3ab1fd" fill-opacity="1"><g transform="translate(133.381717, 268.283421)"><g><path d="M 5.089844 -2.800781 C 5.089844 -4.347656 4.277344 -5.4375 2.820312 -5.4375 C 1.371094 -5.4375 0.300781 -4.347656 0.300781 -2.628906 C 0.300781 -0.761719 1.328125 0.140625 2.710938 0.140625 C 3.800781 0.140625 4.808594 -0.429688 5.019531 -1.710938 L 4.117188 -1.710938 C 4 -0.949219 3.4375 -0.519531 2.75 -0.519531 C 1.96875 -0.519531 1.308594 -0.988281 1.230469 -2.390625 L 5.070312 -2.390625 C 5.089844 -2.578125 5.089844 -2.71875 5.089844 -2.800781 Z M 2.800781 -4.777344 C 3.667969 -4.777344 4.140625 -4.148438 4.21875 -3.050781 L 1.238281 -3.050781 C 1.339844 -4.179688 1.960938 -4.777344 2.800781 -4.777344 Z M 2.800781 -4.777344 "/></g></g></g><g fill="#3ab1fd" fill-opacity="1"><g transform="translate(143.109548, 268.283421)"><g><path d="M 2.820312 -2.699219 L 4.679688 -5.296875 L 3.6875 -5.296875 L 2.359375 -3.25 L 1.03125 -5.296875 L 0.0117188 -5.296875 L 1.839844 -2.679688 L -0.0585938 0 L 0.929688 0 L 2.308594 -2.128906 L 3.699219 0 L 4.699219 0 Z M 2.820312 -2.699219 "/></g></g></g><g fill="#3ab1fd" fill-opacity="1"><g transform="translate(152.167647, 268.283421)"><g><path d="M 2.789062 -5.4375 C 1.460938 -5.4375 0.300781 -4.429688 0.300781 -2.640625 C 0.300781 -0.699219 1.320312 0.140625 2.660156 0.140625 C 3.839844 0.140625 4.71875 -0.460938 4.980469 -1.691406 L 4.078125 -1.691406 C 3.898438 -0.917969 3.410156 -0.519531 2.710938 -0.519531 C 1.917969 -0.519531 1.238281 -1.160156 1.238281 -2.699219 C 1.238281 -4.128906 1.941406 -4.777344 2.769531 -4.777344 C 3.480469 -4.777344 3.9375 -4.367188 4.128906 -3.519531 L 5.027344 -3.519531 C 4.867188 -4.679688 4.058594 -5.4375 2.789062 -5.4375 Z M 2.789062 -5.4375 "/></g></g></g><g fill="#3ab1fd" fill-opacity="1"><g transform="translate(161.69556, 268.283421)"><g><path d="M 1.167969 -7.039062 C 0.859375 -7.039062 0.621094 -6.796875 0.621094 -6.488281 C 0.621094 -6.179688 0.859375 -5.9375 1.167969 -5.9375 C 1.480469 -5.9375 1.71875 -6.179688 1.71875 -6.488281 C 1.71875 -6.796875 1.480469 -7.039062 1.167969 -7.039062 Z M 1.597656 0 L 1.597656 -5.296875 L 0.738281 -5.296875 L 0.738281 0 Z M 1.597656 0 "/></g></g></g><g fill="#3ab1fd" fill-opacity="1"><g transform="translate(168.314628, 268.283421)"><g><path d="M 1.769531 -4.597656 L 2.757812 -4.597656 L 2.757812 -5.257812 L 1.769531 -5.257812 L 1.769531 -6.488281 L 0.910156 -6.488281 L 0.910156 -5.257812 L 0.199219 -5.257812 L 0.199219 -4.597656 L 0.910156 -4.597656 L 0.910156 -1.507812 C 0.910156 -1.210938 0.910156 -0.988281 0.917969 -0.851562 C 0.96875 -0.191406 1.308594 0.078125 1.96875 0.078125 C 2.210938 0.078125 2.449219 0.0703125 2.699219 0.03125 L 2.699219 -0.601562 C 2.03125 -0.519531 1.820312 -0.628906 1.78125 -1.140625 C 1.769531 -1.28125 1.769531 -1.371094 1.769531 -1.550781 Z M 1.769531 -4.597656 "/></g></g></g><g fill="#3ab1fd" fill-opacity="1"><g transform="translate(175.683398, 268.283421)"><g><path d="M 1.167969 -7.039062 C 0.859375 -7.039062 0.621094 -6.796875 0.621094 -6.488281 C 0.621094 -6.179688 0.859375 -5.9375 1.167969 -5.9375 C 1.480469 -5.9375 1.71875 -6.179688 1.71875 -6.488281 C 1.71875 -6.796875 1.480469 -7.039062 1.167969 -7.039062 Z M 1.597656 0 L 1.597656 -5.296875 L 0.738281 -5.296875 L 0.738281 0 Z M 1.597656 0 "/></g></g></g><g fill="#3ab1fd" fill-opacity="1"><g transform="translate(182.302465, 268.283421)"><g><path d="M 5.199219 -3.890625 C 5.117188 -4.820312 4.46875 -5.4375 3.308594 -5.4375 C 2.769531 -5.4375 2.378906 -5.347656 1.929688 -5 L 1.597656 -4.390625 L 1.597656 -5.296875 L 0.738281 -5.296875 L 0.738281 0 L 1.597656 0 L 1.597656 -2.328125 C 1.597656 -4.140625 2.300781 -4.757812 3.128906 -4.757812 C 3.949219 -4.757812 4.289062 -4.300781 4.339844 -3.679688 C 4.359375 -3.410156 4.359375 -3.1875 4.359375 -2.917969 L 4.359375 0 L 5.21875 0 L 5.21875 -2.980469 C 5.21875 -3.410156 5.21875 -3.617188 5.199219 -3.890625 Z M 5.199219 -3.890625 "/></g></g></g><g fill="#3ab1fd" fill-opacity="1"><g transform="translate(192.470128, 268.283421)"><g><path d="M 5.367188 -5.296875 L 4.507812 -5.296875 L 4.507812 -4.570312 L 4.160156 -5.089844 C 3.890625 -5.308594 3.328125 -5.4375 2.890625 -5.4375 C 1.519531 -5.4375 0.300781 -4.527344 0.300781 -2.570312 C 0.300781 -1.019531 1.160156 0.140625 2.710938 0.140625 C 3.25 0.140625 3.808594 -0.03125 4.109375 -0.28125 L 4.507812 -0.851562 L 4.507812 -0.761719 C 4.507812 -0.601562 4.507812 -0.429688 4.5 -0.179688 C 4.457031 0.839844 3.890625 1.441406 2.839844 1.441406 C 1.929688 1.441406 1.410156 0.988281 1.339844 0.339844 L 1.328125 0.25 L 0.460938 0.25 L 0.46875 0.351562 C 0.578125 1.46875 1.328125 2.097656 2.839844 2.097656 C 4.367188 2.097656 5.308594 1.28125 5.359375 -0.269531 C 5.367188 -0.558594 5.367188 -0.96875 5.367188 -1.300781 Z M 2.839844 -0.519531 C 1.78125 -0.519531 1.238281 -1.46875 1.238281 -2.667969 C 1.238281 -4.058594 1.960938 -4.777344 2.890625 -4.777344 C 3.648438 -4.777344 4.507812 -4.257812 4.507812 -2.890625 L 4.507812 -2.597656 C 4.507812 -1.078125 3.71875 -0.519531 2.839844 -0.519531 Z M 2.839844 -0.519531 "/></g></g></g><g fill="#3ab1fd" fill-opacity="1"><g transform="translate(202.857701, 268.283421)"><g/></g></g><g fill="#3ab1fd" fill-opacity="1"><g transform="translate(209.256848, 268.283421)"><g><path d="M 2.789062 -5.4375 C 1.460938 -5.4375 0.300781 -4.429688 0.300781 -2.640625 C 0.300781 -0.699219 1.320312 0.140625 2.660156 0.140625 C 3.839844 0.140625 4.71875 -0.460938 4.980469 -1.691406 L 4.078125 -1.691406 C 3.898438 -0.917969 3.410156 -0.519531 2.710938 -0.519531 C 1.917969 -0.519531 1.238281 -1.160156 1.238281 -2.699219 C 1.238281 -4.128906 1.941406 -4.777344 2.769531 -4.777344 C 3.480469 -4.777344 3.9375 -4.367188 4.128906 -3.519531 L 5.027344 -3.519531 C 4.867188 -4.679688 4.058594 -5.4375 2.789062 -5.4375 Z M 2.789062 -5.4375 "/></g></g></g><g fill="#3ab1fd" fill-opacity="1"><g transform="translate(218.784763, 268.283421)"><g><path d="M 5.199219 -3.890625 C 5.117188 -4.820312 4.46875 -5.4375 3.308594 -5.4375 C 2.769531 -5.4375 2.378906 -5.347656 1.929688 -5 L 1.597656 -4.390625 L 1.597656 -7.398438 L 0.738281 -7.398438 L 0.738281 0 L 1.597656 0 L 1.597656 -2.328125 C 1.597656 -4.140625 2.300781 -4.738281 3.128906 -4.757812 C 3.949219 -4.777344 4.289062 -4.300781 4.339844 -3.679688 C 4.359375 -3.410156 4.359375 -3.1875 4.359375 -2.917969 L 4.359375 0 L 5.21875 0 L 5.21875 -2.980469 C 5.21875 -3.410156 5.21875 -3.617188 5.199219 -3.890625 Z M 5.199219 -3.890625 "/></g></g></g><g fill="#3ab1fd" fill-opacity="1"><g transform="translate(228.952426, 268.283421)"><g><path d="M 3.777344 0 L 4.640625 0 C 4.558594 -0.589844 4.539062 -0.949219 4.539062 -1.351562 L 4.539062 -3.339844 C 4.539062 -3.570312 4.527344 -3.828125 4.507812 -4.039062 C 4.417969 -4.910156 3.890625 -5.4375 2.628906 -5.4375 C 1.460938 -5.4375 0.667969 -4.789062 0.589844 -3.660156 L 1.488281 -3.660156 C 1.550781 -4.390625 1.910156 -4.777344 2.628906 -4.777344 C 3.339844 -4.777344 3.617188 -4.457031 3.660156 -3.96875 C 3.679688 -3.769531 3.679688 -3.558594 3.679688 -3.328125 L 3.679688 -3.1875 L 3.339844 -3.1875 C 1.257812 -3.1875 0.359375 -2.570312 0.359375 -1.371094 C 0.359375 -0.390625 1.109375 0.140625 2.070312 0.140625 C 2.578125 0.140625 3.039062 0.0585938 3.398438 -0.191406 L 3.6875 -0.761719 Z M 2.359375 -0.519531 C 1.710938 -0.519531 1.300781 -0.800781 1.300781 -1.441406 C 1.300781 -2.347656 2.21875 -2.660156 3.679688 -2.550781 L 3.679688 -2.007812 C 3.679688 -1.050781 3.160156 -0.519531 2.359375 -0.519531 Z M 2.359375 -0.519531 "/></g></g></g><g fill="#3ab1fd" fill-opacity="1"><g transform="translate(238.500328, 268.283421)"><g><path d="M 1.769531 -4.597656 L 2.757812 -4.597656 L 2.757812 -5.257812 L 1.769531 -5.257812 L 1.769531 -6.488281 L 0.910156 -6.488281 L 0.910156 -5.257812 L 0.199219 -5.257812 L 0.199219 -4.597656 L 0.910156 -4.597656 L 0.910156 -1.507812 C 0.910156 -1.210938 0.910156 -0.988281 0.917969 -0.851562 C 0.96875 -0.191406 1.308594 0.078125 1.96875 0.078125 C 2.210938 0.078125 2.449219 0.0703125 2.699219 0.03125 L 2.699219 -0.601562 C 2.03125 -0.519531 1.820312 -0.628906 1.78125 -1.140625 C 1.769531 -1.28125 1.769531 -1.371094 1.769531 -1.550781 Z M 1.769531 -4.597656 "/></g></g></g></svg>